Coordinates
version=1
nRows=27
nColumns=19
inDegrees=yes

Units are S.I. units (second, meters, Newtons, ...)
If the header above contains a line with 'inDegrees', this indicates whether rotational values are in degrees (yes) or radians (no).

endheader
time	pelvis_tilt	pelvis_list	pelvis_rotation	pelvis_tx	pelvis_ty	pelvis_tz	hip_flexion_r	hip_adduction_r	hip_rotation_r	knee_angle_r	knee_angle_r_beta	ankle_angle_r	hip_flexion_l	hip_adduction_l	hip_rotation_l	knee_angle_l	knee_angle_l_beta	ankle_angle_l
     14.97333333	     -5.31035572	    -12.89251004	     -1.01394682	      2.23731859	      1.03525775	      1.07971389	     27.35726419	     16.46080131	    -15.14846295	     14.73749729	      0.25721785	     -2.31415164	     -7.34276789	    -20.42447163	    -10.69632639	     96.74543584	      1.68852639	    -21.54257675
     14.98000000	     -5.82495496	    -13.48320913	     -1.82863836	      2.23562885	      1.02877847	      1.08020833	     27.90984492	     17.00273556	    -15.86851075	     17.52396695	      0.30585092	     -1.50759507	     -5.18634695	    -21.20545172	    -10.23023701	    100.33187756	      1.75112161	    -20.86332200
     14.98666667	     -6.44290323	    -14.03974767	     -2.71432104	      2.23356283	      1.02216233	      1.08073096	     28.57178478	     17.51354914	    -16.43593452	     20.55567923	      0.35876428	     -0.36445862	     -2.78057227	    -21.97839257	     -9.65606522	    103.85402236	      1.81259463	    -20.19940001
     14.99333333	     -7.01381533	    -14.58615675	     -3.63781328	      2.23111089	      1.01570963	      1.08121226	     29.12936354	     18.03772576	    -16.81035439	     23.68328502	      0.41335130	      1.11741093	     -0.29499575	    -22.75559032	     -8.97627983	    107.25136440	      1.87188944	    -19.53561806
     15.00000000	     -7.53685111	    -15.08648730	     -4.56296282	      2.22825588	      1.00955971	      1.08166745	     29.53584218	     18.55421674	    -16.94945763	     26.77832255	      0.46736990	      2.91302172	      2.30312713	    -23.49836202	     -8.14452738	    110.49522958	      1.92850556	    -18.88987143
     15.00666667	     -7.94960852	    -15.54010473	     -5.48350191	      2.22502121	      1.00394390	      1.08210151	     29.68810883	     19.06803759	    -16.83652915	     29.72883792	      0.51886610	      4.92364774	      4.93299072	    -24.19268548	     -7.19237155	    113.53034783	      1.98147837	    -18.20925603
     15.01333333	     -8.29106644	    -15.89144677	     -6.38305710	      2.22150018	      0.99895409	      1.08254016	     29.58498817	     19.53980377	    -16.41990043	     32.42949646	      0.56600149	      7.11416038	      7.65107873	    -24.78123500	     -6.12268510	    116.31578587	      2.03009344	    -17.52521076
     15.02000000	     -8.33496102	    -16.12763899	     -7.28213945	      2.21796750	      0.99513858	      1.08304032	     28.90018596	     19.97910464	    -15.59733241	     34.75580810	      0.60660329	      9.38016342	     10.09930671	    -25.21758615	     -5.11505021	    118.69541581	      2.07162581	    -16.83005711
     15.02666667	     -6.63426300	    -16.14823772	     -8.39881489	      2.21653858	      0.99529395	      1.08375891	     25.64233702	     20.35430089	    -13.66218902	     36.37511656	      0.63486555	     11.70293713	      9.83339204	    -25.25931246	     -5.41195321	    119.78491443	      2.09064115	    -16.15395698
     15.03333333	     -3.69255649	    -15.99837067	     -9.53005579	      2.21635184	      0.99852811	      1.08462874	     20.47623709	     20.40471828	    -10.93276813	     37.27340067	      0.65054357	     13.95774321	      7.77964082	    -24.89866182	     -6.51633429	    119.90402230	      2.09271998	    -15.47484106
     15.04000000	     -1.16084943	    -15.63888627	    -10.41594156	      2.21547598	      1.00181760	      1.08555273	     15.67697398	     19.98195238	     -8.28755071	     37.75891091	      0.65901732	     15.99631445	      6.60343293	    -24.28345523	     -7.18958335	    119.93334671	      2.09323178	    -14.56953204
     15.04666667	      0.81708048	    -15.12233127	    -10.96790247	      2.21399456	      1.00494243	      1.08649345	     11.45147751	     19.22098432	     -6.00294147	     37.80926762	      0.65989621	     17.72100814	      6.54170455	    -23.59775677	     -7.27469135	    119.94430917	      2.09342311	    -13.57611299
     15.05333333	      1.49955844	    -14.17538617	    -11.35346490	      2.21234853	      1.00720030	      1.08754168	      8.68988711	     18.10424149	     -4.10568138	     37.56768608	      0.65567981	     19.12186592	      8.40344070	    -22.56062846	     -6.72648133	    119.94992400	      2.09352111	    -12.54703662
     15.06000000	      2.37660381	    -13.41779298	    -11.16009089	      2.21014868	      1.00961599	      1.08817754	      5.70156444	     17.03138886	     -2.84178127	     36.94104344	      0.64474284	     20.09946958	     10.37893229	    -21.74294761	     -5.70088001	    119.94856371	      2.09349737	    -11.22557312
     15.06666667	      2.19324327	    -12.49228387	    -10.88570832	      2.20797338	      1.01105545	      1.08895781	      3.84536560	     16.02094946	     -1.80348290	     36.10313368	      0.63011855	     20.74024263	     13.73441538	    -20.89682396	     -4.39199045	    119.94201533	      2.09338308	     -9.82168927
     15.07333333	      0.98125929	    -11.76752936	     -9.72033892	      2.20634255	      1.01159529	      1.08877061	      3.02951658	     15.34249607	     -2.02450180	     34.81536072	      0.60764267	     20.58497471	     18.76901649	    -20.00632471	     -1.84767098	    119.93322572	      2.09322967	     -8.63486853
     15.08000000	     -1.61377684	    -10.73273424	     -8.49177041	      2.20453123	      1.01039574	      1.08824089	      3.93628625	     14.53044946	     -2.69325338	     33.84801445	      0.59075930	     20.25741263	     25.51283358	    -18.48786194	      0.82707992	    119.91027703	      2.09282914	     -7.70294914
     15.08666667	     -4.42358776	    -10.43268560	     -6.72704786	      2.20300883	      1.00847733	      1.08692952	      4.87336622	     14.45123173	     -3.92969958	     32.50696114	      0.56735350	     19.30326368	     32.53065347	    -17.16951315	      4.05722746	    119.82831110	      2.09139857	     -6.78330062
     15.09333333	     -6.58886927	    -10.25566913	     -4.86775500	      2.20277785	      1.00784173	      1.08542255	      4.84067324	     14.38967686	     -5.14477924	     30.71612970	      0.53609760	     17.78317665	     38.28239632	    -15.54452269	      6.69903072	    119.13239043	      2.07925246	     -5.93052579
     15.10000000	     -7.08850521	     -9.16077218	     -3.26276518	      2.20521752	      1.01145291	      1.08446692	      2.54374505	     13.31688344	     -5.72343192	     28.20293984	      0.49223416	     15.55214043	     40.88099733	    -13.19364823	      7.35938009	    117.09009106	      2.04360761	     -5.09519913
     15.10666667	     -7.10897311	     -7.82170890	     -1.67665092	      2.20858735	      1.01629751	      1.08357763	     -0.44416443	     12.07182589	     -6.33468394	     25.34745448	      0.44239654	     12.64405742	     42.41587562	    -10.73235557	      7.38157890	    114.56071270	      1.99946163	     -4.23030361
     15.11333333	     -7.48342433	     -6.35621800	     -0.11854663	      2.21210013	      1.02090969	      1.08253488	     -2.97565321	     10.77034556	     -7.27428269	     22.58723060	      0.39422154	      9.20406319	     44.08118526	     -8.14461323	      7.15201771	    111.80635962	      1.95138910	     -3.52225091
     15.12000000	     -8.01129337	     -4.82643362	      1.34502267	      2.21579184	      1.02547477	      1.08151539	     -5.26678090	      9.45665012	     -8.48084204	     19.95383265	      0.34826008	      5.28377942	     45.62867016	     -5.60905136	      6.62118896	    108.82593969	      1.89937096	     -2.89180997
     15.12666667	     -9.06084545	     -3.35909872	      2.72556837	      2.21938613	      1.02944328	      1.08035661	     -6.78679641	      8.19703686	    -10.04757882	     17.70328156	      0.30898055	      1.07643767	     47.56540338	     -3.14272241	      5.96536063	    105.68561530	      1.84456196	     -2.45396253
     15.13333333	     -9.73250210	     -1.87078601	      3.89184767	      2.22312809	      1.03394257	      1.07958822	     -8.59992575	      6.92749705	    -11.89821603	     15.65532590	      0.27323698	     -3.48854816	     48.79371180	     -1.04590794	      4.89226326	    102.31932992	      1.78580920	     -1.94765553
     15.14000000	    -10.62173436	     -0.45042591	      4.75538001	      2.22674248	      1.03821355	      1.07911422	     -9.91561679	      5.65745324	    -13.86209562	     14.09463901	      0.24599786	     -8.09545579	     50.06672225	      0.70057303	      3.53512612	     98.78062755	      1.72404719	     -1.53206865
     15.14666667	    -10.94499013	      1.01997040	      5.29579809	      2.23044056	      1.04320844	      1.07916559	    -11.64697649	      4.31474164	    -16.01799306	     12.88033101	      0.22480418	    -12.74956299	     50.46807860	      2.02325693	      1.78308737	     95.02502429	      1.65849955	     -1.02835614
